<?xml version="1.0" encoding="utf-8"?>
<!-- Generator: Adobe Illustrator 25.0.1, SVG Export Plug-In . SVG Version: 6.00 Build 0)  -->
<svg version="1.1" id="Ebene_1" xmlns="http://www.w3.org/2000/svg" xmlns:xlink="http://www.w3.org/1999/xlink" x="0px" y="0px"
	 viewBox="0 0 35 35" style="enable-background:new 0 0 35 35;" xml:space="preserve">
<style type="text/css">
	.st0{fill-rule:evenodd;clip-rule:evenodd;fill:#FFFFFF;}
</style>
<g>
	<path id="SVGID_3_" class="st0" d="M17.5,0C7.8,0,0,7.8,0,17.5S7.8,35,17.5,35S35,27.2,35,17.5S27.2,0,17.5,0z M21,18.3h-2.8v7.9
		h-3.1v-7.9h-2.7v-3.1h2.7V13c0-0.2,0-0.4,0-0.6c0.1-2,1.9-3.6,3.9-3.5c1.1,0,2.1,0.1,2.4,0.1v2.8h-1.7c-1.3,0-1.5,0.6-1.5,1.5v2
		h3.2L21,18.3z"/>
</g>
</svg>
