<?xml version="1.0" encoding="utf-8"?>
<!-- Generator: Adobe Illustrator 24.2.1, SVG Export Plug-In . SVG Version: 6.00 Build 0)  -->
<svg version="1.1" id="Ebene_1" xmlns="http://www.w3.org/2000/svg" xmlns:xlink="http://www.w3.org/1999/xlink" x="0px" y="0px"
	 viewBox="0 0 35 35" style="enable-background:new 0 0 35 35;" xml:space="preserve">
<style type="text/css">
	.st0{fill-rule:evenodd;clip-rule:evenodd;fill:#FFFFFF;}
</style>
<g>
	<path id="SVGID_1_" class="st0" d="M26.8,25.4H23v-5.5c0-3.6-3.8-3.2-3.8,0v5.5h-3.8V14h3.8v2c1.6-3.1,7.6-3.2,7.6,2.8V25.4z
		 M11.5,12.2c-1.2,0-2-1-2-2.2s0.9-2,2-2c1.2,0,2.2,0.9,2.2,2C13.7,11.2,12.7,12.2,11.5,12.2z M13.6,25.4H9.7V14h3.8L13.6,25.4
		L13.6,25.4z M17.5,0C7.9,0,0,7.9,0,17.5S7.9,35,17.5,35S35,27.1,35,17.5S27.1,0,17.5,0z"/>
</g>
</svg>
