<?xml version="1.0" encoding="utf-8"?>
<!-- Generator: Adobe Illustrator 24.2.1, SVG Export Plug-In . SVG Version: 6.00 Build 0)  -->
<svg version="1.1" id="Ebene_1" xmlns="http://www.w3.org/2000/svg" xmlns:xlink="http://www.w3.org/1999/xlink" x="0px" y="0px"
	 viewBox="0 0 35 35" style="enable-background:new 0 0 35 35;" xml:space="preserve">
<style type="text/css">
	.st0{fill-rule:evenodd;clip-rule:evenodd;fill:#FFFFFF;}
</style>
<g>
	<path id="SVGID_2_" class="st0" d="M26.4,14c0.3,5.8-4.1,12.4-12,12.4c-2.3,0-4.5-0.7-6.4-1.9c2.2,0.3,4.4-0.3,6.3-1.7
		c-1.9,0-3.4-1.3-3.9-2.9c0.7,0.1,1.3,0.1,1.9,0c-2-0.3-3.5-2.2-3.4-4.1c0.6,0.3,1.2,0.4,1.9,0.6c-1.9-1.3-2.3-3.6-1.3-5.5
		c2,2.5,5.1,4.2,8.6,4.4c-0.6-2.6,1.3-5.1,4.1-5.1c1.2,0,2.3,0.4,3.1,1.3c1-0.1,1.9-0.6,2.6-1c-0.3,1-1,1.8-1.9,2.3
		c0.9-0.1,1.6-0.3,2.3-0.7C27.9,12.7,27.1,13.4,26.4,14 M17.5,0C7.9,0,0,7.9,0,17.5S7.9,35,17.5,35S35,27.1,35,17.5S27.1,0,17.5,0"
		/>
</g>
</svg>
